<svg id="Layer_1" data-name="Layer 1" xmlns="http://www.w3.org/2000/svg" viewBox="0 0 165.68 205.39"><defs><style>.cls-1{fill:gray;}.cls-2{fill:#4d4d4d;}</style></defs><path class="cls-1" d="M297.27,180.09l2.18-3.15c2.49-3.6,5-7.28,6.29-11.47s1.11-9.05-1.48-12.57a10.6,10.6,0,0,0-18.71,3.32,44,44,0,0,0-.85,6.49c-.29,2.17-1,4.43-2.77,5.75l-.23.4a18.92,18.92,0,0,0-19.33,2.71l-.9.39a4.5,4.5,0,0,0-2.63-3.55,13.33,13.33,0,0,0-4.47-1.09l-14.11-1.74c-2.92-.36-6.07-.68-8.65.74s-4.11,4.5-5.35,7.32l-8.36,19c-1.86,4.22-3.8,8.56-7.18,11.69l-.76.3c-1.47.23-2.22,2.06-1.87,3.51a8.28,8.28,0,0,0,2.52,3.62l6,5.93-.72-1.41c2.22,1.42,5.39,0,6.69-2.3s1.2-5.11.88-7.73-.82-5.3-.22-7.87c1-4.46,5-7.48,8.78-10.11l11.91-8.37.45-.26c-.34,1.72,1,3.4,2.6,4.13a17.35,17.35,0,0,0,5.14,1,7.27,7.27,0,0,1,4.73,2l.68.71-17.35,42.33,0,.44a158.2,158.2,0,0,0-24.79,43.55l.6,1.1c-5.65,1-10.34,5.08-13.66,9.76s-5.55,10-8.26,15.1-6.09,10-11,13l.69.27c-2-1.83-5.52-.93-7.22,1.2s-2,5.06-2,7.79.36,5.52-.31,8.17c-.74,2.93-2.63,5.46-3.35,8.4a11.25,11.25,0,0,0,4.47,11.66l.76.75c-1.22-9.54,3.49-19,9.93-26.14s14.58-12.5,22-18.55c17.69-14.31,31.78-32.49,45.7-50.49l1.53.26a7.78,7.78,0,0,0,6,.88,48.06,48.06,0,0,0,5.93-2,11.52,11.52,0,0,1,6.15-.71l-.49.08c-4.71,5.29-9.65,10.75-16.19,13.46-4.36,1.81-9.13,2.27-13.83,2.72l-1.46,3c.68,9.05-4.21,15.54-4,24,.06,2.24-.14,4.77-.19,7s-.62,3.66,1.19,5l2-1a38.32,38.32,0,0,1,23.73-32.17c5.45-2.27,11.32-3.31,17-5s11.34-4.07,15.3-8.45c3.07-3.38,4.94-8.28,3.41-12.58-1-2.81-3.26-5-5.45-7-6.67-6.19-14-12.68-23-13.85l-.65-1.15A177.27,177.27,0,0,1,293,199.13l1.63-.44q11.24,5,22.87,9c2.64.91,5.69,1.75,8.09.33s3.09-4.22,3.63-6.82a187.91,187.91,0,0,0,4-37.75l-.31-.36a23.19,23.19,0,0,0-7.08-4.91,6.14,6.14,0,0,0-3.64-.68,4.65,4.65,0,0,0-3,2.47,11.82,11.82,0,0,0-1.08,3.84l-.09.54a3.89,3.89,0,0,0-1.6,6.63c2,1.81,5.51,1.38,7.08,3.56,1.27,1.78.48,4.25-.47,6.22a51.79,51.79,0,0,1-8.67,12.67l.63-.87a22.06,22.06,0,0,0-7.34-6.49,67.81,67.81,0,0,1-8.3-5.34" transform="translate(-169.18 -147.09)"/><path class="cls-2" d="M298.57,180.84c5.32-7.69,13-17.67,7.8-27.4a12.09,12.09,0,0,0-21.39.21c-1.36,2.63-1.38,5.49-1.7,8.36a10.32,10.32,0,0,1-.95,3.63c-.51,1-1.4,1.54-1.92,2.46l2-.54a20.73,20.73,0,0,0-11.95-1.36,20.15,20.15,0,0,0-5.74,2c-1.42.74-2.6,1.85-4,2.49L263,172c-.36-3.29-3-5.15-6.11-5.77-3.53-.71-7.2-.95-10.76-1.39-6.17-.76-13.78-2.83-18.24,2.86-2,2.6-3.18,5.85-4.49,8.84l-4.58,10.42c-1.39,3.15-2.69,6.36-4.24,9.44a35.32,35.32,0,0,1-2.25,3.86,18.46,18.46,0,0,1-1.51,1.92c-.27.3-.55.58-.84.87.32-.32.18,0-.12.09a4.37,4.37,0,0,0-2.85,2.23,5,5,0,0,0,.08,4.34,17,17,0,0,0,3.72,4.39l4.75,4.71a1.51,1.51,0,0,0,2.36-1.82l-.73-1.41-2,2.05a6.42,6.42,0,0,0,7.94-1.71c2.38-2.78,2.27-6.66,1.84-10.07-.49-3.81-.91-7.42,1.53-10.67,2.12-2.84,5.27-4.8,8.13-6.81l5.75-4.05c1.58-1.11,3.13-2.37,4.81-3.32l-2.25-1.3c-.46,3.41,2.83,5.66,5.78,6.19a48,48,0,0,1,4.93.73,6.14,6.14,0,0,1,2.88,2l-.38-1.46L247,209.19l-4.53,11-2.17,5.29c-.57,1.4-1.75,3.22-1.61,4.75l.44-1.06a162.6,162.6,0,0,0-15.55,23.21q-3.34,6.11-6.15,12.47-1.41,3.21-2.69,6.47c-.4,1-1.09,2.13-.63,3.22a10.43,10.43,0,0,0,.6,1.09l.89-2.2c-8.64,1.67-14.29,9.13-18.18,16.46-4.08,7.68-7.37,16.71-15.07,21.57a1.52,1.52,0,0,0,.36,2.74l.68.26a1.51,1.51,0,0,0,1.46-2.5,6.61,6.61,0,0,0-8.53.38c-2.74,2.33-3.27,6.28-3.24,9.67a55,55,0,0,1,0,6.16,17.93,17.93,0,0,1-2,5.84c-1.57,3.32-2.51,6.63-1.54,10.28a13,13,0,0,0,2.43,4.81,33.18,33.18,0,0,0,3.1,2.95c.84.83,2.72.3,2.56-1.06-2-16.76,12.31-28.82,24.22-37.94A205.83,205.83,0,0,0,220.82,297c5.9-5.77,11.41-11.92,16.7-18.24,6-7.14,11.68-14.5,17.38-21.87l-1.46.39a12,12,0,0,1,1.2.2c.56.16,1.1.55,1.71.76a10.21,10.21,0,0,0,5.06.25c3.87-.68,7.61-3.55,11.66-2.79v-2.89c-1.17.21-1.76,1.16-2.52,2-1,1.12-2,2.23-3.09,3.32a45.12,45.12,0,0,1-6.14,5.41c-5.1,3.61-10.88,4.75-17,5.35-1.07.1-2.16,0-2.75,1-.38.66-.68,1.37-1,2.05a3.92,3.92,0,0,0-.54,1.93,31.63,31.63,0,0,1-.19,4.56c-.73,5.25-3,10.16-3.64,15.43-.4,3.2-.26,6.51-.37,9.73-.09,2.52-.62,5.12,1.61,6.9a1.59,1.59,0,0,0,1.82.24c.88-.45,2.37-.85,2.69-1.9a24.8,24.8,0,0,0,.37-2.89c.17-1.06.39-2.11.65-3.16A37.14,37.14,0,0,1,247.65,292a37.59,37.59,0,0,1,18.72-14.89c9.17-3.38,19.55-4,27.64-10,3.55-2.61,6.55-6.16,7.59-10.53,1.11-4.69-.61-8.8-3.85-12.18A88.26,88.26,0,0,0,286,234.19a32,32,0,0,0-14.08-6.13l.89.69-.65-1.15v1.51a177.13,177.13,0,0,1,11.64-16.86q3.08-3.93,6.37-7.69c.59-.68,1.2-1.36,1.81-2a12.1,12.1,0,0,0,1.53-1.68c.43-.32.43-.41,0-.28l.1,0a3.58,3.58,0,0,1,.56-.16l.93-.25-1.16-.15q10.75,4.77,21.86,8.67c3,1,6.41,2.32,9.56,1.14,2.81-1.06,4.22-3.75,5-6.5a102.85,102.85,0,0,0,2.17-11.3q.9-5.75,1.45-11.53t.76-11.67c0-1,.06-1.95.07-2.93a9.58,9.58,0,0,0,0-2.83c-.38-1.2-1.93-2.22-2.85-2.95a24.17,24.17,0,0,0-4.86-3,8,8,0,0,0-5.17-1c-3.67.85-4.68,4.68-5.22,7.89l1.05-1a5.45,5.45,0,0,0-3.45,7.44c1.39,3.1,4.53,2.95,7.15,4.3,3.18,1.64-.08,6.45-1.23,8.47a50.55,50.55,0,0,1-6.8,9.25l2.36,1.82.63-.87a1.46,1.46,0,0,0,0-1.51c-3.87-5.84-10.65-7.88-15.87-12.14-1.48-1.21-3.62.9-2.12,2.12,4.91,4,11.78,6.08,15.4,11.53v-1.51l-.63.86c-1,1.39,1.21,3.06,2.36,1.82a55.4,55.4,0,0,0,6.48-8.53c1.63-2.68,3.86-6.06,3.76-9.33s-2.53-4.68-5.31-5.5c-1.18-.35-2.66-.64-3.34-1.78a2.43,2.43,0,0,1,1.4-3.55,1.49,1.49,0,0,0,1-1.05c.47-2.79,1.23-6.81,5-5.51a18.59,18.59,0,0,1,7.71,5.27l-.44-1.06A186.82,186.82,0,0,1,330,188.54c-.58,4.1-1.29,8.19-2.15,12.24-.6,2.79-1.52,6.34-5,6.47a14.32,14.32,0,0,1-5.15-1.1q-2.85-1-5.67-2-5.88-2.16-11.66-4.59c-.92-.38-1.83-.78-2.75-1.17a12,12,0,0,0-2.76-1.15,5.22,5.22,0,0,0-2.41.55,7,7,0,0,0-1.87,1.81c-.72.78-1.42,1.57-2.13,2.36-1.25,1.42-2.48,2.85-3.68,4.31a181.2,181.2,0,0,0-15.24,21.36,1.51,1.51,0,0,0,0,1.51,11.74,11.74,0,0,0,.65,1.15c.66.91,1.88.82,2.89,1a25.91,25.91,0,0,1,6.2,2.27,52.75,52.75,0,0,1,10.64,7.66c1.69,1.5,3.38,3,5,4.59a13.26,13.26,0,0,1,3.69,5.28c1.28,4.08-.86,8.45-3.69,11.34-6.64,6.76-16.69,7.95-25.36,10.47-7.81,2.28-15,6.19-20.47,12.29A40.44,40.44,0,0,0,239,308.5l.74-1.3-2,1,1.82.24c-1.22-1-.83-2.15-.77-3.56.1-2,.2-4.06.22-6.09a35.06,35.06,0,0,1,.31-5.61,49,49,0,0,1,1.26-5.22,54.92,54.92,0,0,0,2.4-10.67,9.26,9.26,0,0,0,.07-2.92l0-.43c-.22.33-.28.41-.19.23a2.55,2.55,0,0,1,.27-.55l1.15-2.33L243,272c6.48-.62,12.91-1.44,18.53-5a42.07,42.07,0,0,0,6.93-5.62q1.54-1.51,3-3.11c.51-.55,1-1.11,1.52-1.67.27-.31.54-.62.82-.92-.18.18-.34.07.09,0a1.51,1.51,0,0,0,0-2.89c-4.19-.79-7.67,1.24-11.57,2.38a8.18,8.18,0,0,1-5.15.16,12.26,12.26,0,0,0-1.7-.76c-.4-.09-.8-.14-1.2-.21a1.51,1.51,0,0,0-1.46.39c-10.33,13.35-20.69,26.75-32.66,38.7a191.34,191.34,0,0,1-19,16.47c-6.59,5-13.32,10.13-18.44,16.73-5.33,6.88-9,15.5-8,24.34l2.56-1.06a36.27,36.27,0,0,1-2.87-2.67,10,10,0,0,1-2-4.47c-.81-4.16,1.83-7.45,3.12-11.18,1.41-4.11.22-8.36.82-12.55a6.87,6.87,0,0,1,2.31-4.66c1.14-.84,3-1.31,4.19-.32l1.46-2.51-.69-.26.36,2.74c7.54-4.76,11.23-13,15.11-20.64,3.72-7.33,8.7-15.4,17.43-17.09a1.52,1.52,0,0,0,.9-2.2l-.6-1.09.15,1.15a157.48,157.48,0,0,1,16.54-32.16q2.46-3.67,5.11-7.2c.89-1.18,1.92-2.3,2.75-3.52a3.42,3.42,0,0,0,.41-1.39,14.89,14.89,0,0,1,.88-2l7.73-18.87L259,187.9a1.49,1.49,0,0,0-.38-1.46,10.93,10.93,0,0,0-2.13-1.89,10.17,10.17,0,0,0-3.95-1.22c-2.19-.3-7.1-.29-6.64-3.67.16-1.18-1.38-1.79-2.26-1.29-1.82,1-3.5,2.4-5.21,3.6L232,186.44c-3.26,2.29-6.72,4.64-8.84,8.11a12.42,12.42,0,0,0-1.76,6.14,62.6,62.6,0,0,0,.64,6.83c.16,2.06.19,4.52-1.15,6.24-1,1.26-2.82,2.1-4.31,1.24a1.51,1.51,0,0,0-2.05,2.05l.73,1.41,2.35-1.81c-2.32-2.3-4.81-4.52-7-7-.67-.75-1.47-1.85-1-2.92.33-.82,1.18-.71,1.85-1.11a11.07,11.07,0,0,0,2.59-2.78,29.15,29.15,0,0,0,2.31-3.55c1.38-2.49,2.48-5.12,3.62-7.72,2.67-6.07,5.26-12.19,8-18.23,1-2.16,2.17-4.58,4.36-5.76,2.52-1.35,5.67-.8,8.37-.47l11.19,1.38c2.28.28,7.69.23,8,3.44a1.53,1.53,0,0,0,2.26,1.3,36.3,36.3,0,0,0,3.39-2.13,17.84,17.84,0,0,1,4.94-1.89,17.24,17.24,0,0,1,10.38.91,1.55,1.55,0,0,0,2.06-.53,18.93,18.93,0,0,1,1.35-1.55,9.65,9.65,0,0,0,1.28-2.62,32,32,0,0,0,.92-6.47c.44-4,2.84-7.5,6.85-8.59a9.24,9.24,0,0,1,9.89,3.74c2.24,3.42,2.06,7.82.8,11.57-1.69,5-5.14,9.33-8.11,13.63-1.1,1.59,1.49,3.09,2.59,1.51Z" transform="translate(-169.18 -147.09)"/></svg>